Coordinates
version=1
nRows=30
nColumns=23
inDegrees=yes

Units are S.I. units (second, meters, Newtons, ...)
Angles are in degrees.

endheader
time	pelvis_tilt	pelvis_list	pelvis_rotation	pelvis_tx	pelvis_ty	pelvis_tz	hip_flexion_r	hip_adduction_r	hip_rotation_r	knee_angle_r	knee_angle_r_beta	ankle_angle_r	subtalar_angle_r	mtp_angle_r	hip_flexion_l	hip_adduction_l	hip_rotation_l	knee_angle_l	knee_angle_l_beta	ankle_angle_l	subtalar_angle_l	mtp_angle_l
    120.99555600	    -17.08618045	      7.29034391	      3.24934661	      0.00812403	      1.37185310	      0.24326488	     48.84236362	    -12.44289477	      2.51445060	     65.51180575	      1.14339671	      6.74755834	      0.00000000	      0.00000000	     79.26250890	      1.92154356	     -2.00725805	     85.83805006	      1.49815660	      9.91375116	      0.00000000	      0.00000000
    121.00444400	    -16.91693230	      7.06375152	      2.85461901	      0.00833538	      1.37157321	      0.24332758	     49.68918430	    -11.92595972	      3.08019751	     68.46285274	      1.19490220	      7.69991429	      0.00000000	      0.00000000	     77.80041592	      1.57859330	     -2.04100200	     83.37148194	      1.45510686	     10.38587821	      0.00000000	      0.00000000
    121.01333300	    -16.73023413	      6.65675903	      2.38744994	      0.00857087	      1.37127308	      0.24342716	     50.51789005	    -11.20266496	      3.53603304	     71.35382637	      1.24535920	      8.68126941	      0.00000000	      0.00000000	     76.25931064	      1.08908172	     -1.94538543	     80.86682426	      1.41139234	     10.77594986	      0.00000000	      0.00000000
    121.02222200	    -16.55964130	      6.27954871	      1.91603942	      0.00889070	      1.37104070	      0.24353874	     51.39253498	    -10.49722597	      3.98377948	     74.20444563	      1.29511190	      9.61980670	      0.00000000	      0.00000000	     74.61656901	      0.58376257	     -1.92800068	     78.24046138	      1.36555366	     11.08571058	      0.00000000	      0.00000000
    121.03111100	    -16.39940702	      5.95820936	      1.45770860	      0.00925194	      1.37083440	      0.24351893	     52.33266517	     -9.86823011	      4.40687020	     77.02824571	      1.34439650	     10.36737059	      0.00000000	      0.00000000	     72.87686171	      0.12089480	     -1.98535024	     75.50132886	      1.31774678	     11.34682839	      0.00000000	      0.00000000
    121.04000000	    -16.25890998	      5.47237843	      0.93463567	      0.00963075	      1.37060831	      0.24359707	     53.29191331	     -9.04789538	      4.72307529	     79.77836182	      1.39239509	     11.16531558	      0.00000000	      0.00000000	     71.10959178	     -0.50310648	     -1.95973851	     72.72721234	      1.26932931	     11.44753107	      0.00000000	      0.00000000
    121.04888900	    -16.13336156	      5.05153635	      0.41507161	      0.01002498	      1.37041847	      0.24357153	     54.32213173	     -8.30304288	      5.02751059	     82.47825266	      1.43951707	     11.85074630	      0.00000000	      0.00000000	     69.26695559	     -1.09405430	     -2.04189493	     69.85001517	      1.21911275	     11.46070099	      0.00000000	      0.00000000
    121.05777800	    -16.04481138	      4.47467065	     -0.15915235	      0.01039182	      1.37014693	      0.24360902	     55.40465030	     -7.39452023	      5.20824275	     85.10904690	      1.48543309	     12.54228445	      0.00000000	      0.00000000	     67.44594649	     -1.83491286	     -2.05570389	     66.97510807	      1.16893615	     11.23364910	      0.00000000	      0.00000000
    121.06666700	    -15.97724532	      4.02408395	     -0.69319555	      0.01081577	      1.36998611	      0.24355714	     56.56086539	     -6.63639140	      5.40231710	     87.65266023	      1.52982752	     13.08889353	      0.00000000	      0.00000000	     65.55579640	     -2.48406545	     -2.24103551	     63.99681966	      1.11695521	     10.95393330	      0.00000000	      0.00000000
    121.07555600	    -15.95560931	      3.44791095	     -1.25674291	      0.01113316	      1.36970580	      0.24349282	     57.79186443	     -5.77088068	      5.47823217	     90.11082310	      1.57273055	     13.60293840	      0.00000000	      0.00000000	     63.73433517	     -3.24512152	     -2.39946937	     61.06490011	      1.06578356	     10.40570083	      0.00000000	      0.00000000
    121.08444400	    -15.97867791	      2.88582080	     -1.80996649	      0.01150086	      1.36945310	      0.24336409	     59.09975926	     -4.95284438	      5.49857283	     92.46203558	      1.61376695	     14.02395579	      0.00000000	      0.00000000	     61.93952385	     -4.00291836	     -2.64336262	     58.13959999	      1.01472745	      9.69114552	      0.00000000	      0.00000000
    121.09333300	    -16.01779968	      2.43412390	     -2.33894796	      0.01172682	      1.36914902	      0.24319883	     60.50667485	     -4.23640498	      5.58051187	     94.74517808	      1.65361531	     14.34056490	      0.00000000	      0.00000000	     60.16037444	     -4.67041626	     -3.00950546	     55.23594295	      0.96404907	      8.80227781	      0.00000000	      0.00000000
    121.10222200	    -16.10686589	      1.92588250	     -2.84537429	      0.01193956	      1.36884768	      0.24303325	     61.97375231	     -3.51031895	      5.55372421	     96.87375695	      1.69076602	     14.58762924	      0.00000000	      0.00000000	     58.48334529	     -5.37698690	     -3.40661218	     52.44532733	      0.91534364	      7.70337673	      0.00000000	      0.00000000
    121.11111100	    -16.23510231	      1.44284186	     -3.32926505	      0.01211897	      1.36855525	      0.24276949	     63.51175426	     -2.84566801	      5.49722163	     98.87071780	      1.72561956	     14.75149357	      0.00000000	      0.00000000	     56.89314427	     -6.05479443	     -3.88028505	     49.76274297	      0.86852371	      6.39034690	      0.00000000	      0.00000000
    121.12000000	    -16.39469226	      0.98146236	     -3.77555465	      0.01221806	      1.36824782	      0.24255329	     65.10817186	     -2.22496448	      5.42528718	    100.72355127	      1.75795760	     14.85235080	      0.00000000	      0.00000000	     55.40609405	     -6.70722114	     -4.40866291	     47.21375795	      0.82403553	      4.85250648	      0.00000000	      0.00000000
    121.12888900	    -16.54789427	      0.74241460	     -4.17165810	      0.01229329	      1.36799084	      0.24228988	     66.75940232	     -1.78499243	      5.51346067	    102.46034382	      1.78827035	     14.83797816	      0.00000000	      0.00000000	     53.94210249	     -7.15902823	     -5.10751826	     44.76844151	      0.78135671	      3.25715478	      0.00000000	      0.00000000
    121.13777800	    -16.73094600	      0.36731791	     -4.53626619	      0.01230582	      1.36781871	      0.24201511	     68.40213536	     -1.29056243	      5.43783714	    103.99539445	      1.81506204	     14.83653999	      0.00000000	      0.00000000	     52.63630929	     -7.69705564	     -5.71400741	     42.54530049	      0.74255557	      1.41209609	      0.00000000	      0.00000000
    121.14666700	    -16.91609583	      0.11320757	     -4.86924782	      0.01232375	      1.36769918	      0.24169638	     70.05383830	     -0.89356463	      5.44758554	    105.37590791	      1.83915655	     14.80289758	      0.00000000	      0.00000000	     51.40001791	     -8.12468603	     -6.40031088	     40.49247936	      0.70672709	     -0.51020859	      0.00000000	      0.00000000
    121.15555600	    -17.10483951	     -0.39427892	     -5.14124195	      0.01235412	      1.36777157	      0.24130066	     71.59166839	     -0.42014943	      5.16426971	    106.50354116	      1.85883746	     14.80108670	      0.00000000	      0.00000000	     50.30723374	     -8.69082455	     -6.78508944	     38.77043006	      0.67667166	     -1.88054574	      0.00000000	      0.00000000
    121.16444400	    -17.22852867	     -0.28826142	     -5.43645970	      0.01217407	      1.36767697	      0.24126206	     73.22257438	     -0.15965731	      5.50430496	    107.62588986	      1.87842614	     14.78516499	      0.00000000	      0.00000000	     49.19949853	     -8.84696194	     -7.68928190	     37.12660631	      0.64798152	     -4.30469005	      0.00000000	      0.00000000
    121.17333300	    -17.37362510	     -0.50787135	     -5.68944754	      0.01201019	      1.36778913	      0.24108746	     74.70525047	      0.21786740	      5.48592369	    108.46857908	      1.89313384	     14.88605891	      0.00000000	      0.00000000	     48.26906351	     -9.21604881	     -8.22342695	     35.84979425	      0.62569695	     -6.18866897	      0.00000000	      0.00000000
    121.18222200	    -17.50858591	     -0.72593641	     -5.95245996	      0.01188063	      1.36798089	      0.24092607	     76.09248045	      0.61679029	      5.44717254	    109.10837223	      1.90430034	     15.07128524	      0.00000000	      0.00000000	     47.43068842	     -9.58380421	     -8.65514536	     34.86082048	      0.60843610	     -7.76164505	      0.00000000	      0.00000000
    121.19111100	    -17.62688344	     -0.83168896	     -6.18822398	      0.01169726	      1.36818451	      0.24087815	     77.41140486	      0.98507937	      5.50840042	    109.60548873	      1.91297666	     15.34105984	      0.00000000	      0.00000000	     46.67097318	     -9.85937105	     -9.09368786	     34.09474877	      0.59506562	     -9.35916998	      0.00000000	      0.00000000
    121.20000000	    -17.68284914	     -0.86567875	     -6.38156590	      0.01136203	      1.36836500	      0.24084571	     78.60375058	      1.30134619	      5.60454937	    109.93238967	      1.91868215	     15.65766953	      0.00000000	      0.00000000	     46.00450216	    -10.05140523	     -9.45709981	     33.69539418	      0.58809557	    -10.72932504	      0.00000000	      0.00000000
    121.20888900	    -17.73961413	     -0.91218876	     -6.59124377	      0.01100268	      1.36855637	      0.24081269	     79.68517470	      1.65653813	      5.67659136	    110.05567420	      1.92083388	     16.07582633	      0.00000000	      0.00000000	     45.45390379	    -10.25805208	     -9.68288697	     33.58501037	      0.58616901	    -11.87160222	      0.00000000	      0.00000000
    121.21777800	    -17.78814406	     -1.01658997	     -6.79066319	      0.01064726	      1.36883337	      0.24084321	     80.61718983	      2.03620865	      5.65760018	    109.96783783	      1.91930084	     16.58949064	      0.00000000	      0.00000000	     45.02551787	    -10.52042299	     -9.79980144	     33.80741002	      0.59005062	    -12.65719577	      0.00000000	      0.00000000
    121.22666700	    -17.73077321	     -1.04642894	     -6.91517551	      0.01007204	      1.36904222	      0.24077706	     81.37839370	      2.31738492	      5.69107457	    109.73290227	      1.91520044	     17.00443440	      0.00000000	      0.00000000	     44.65012275	    -10.65695155	     -9.78720274	     34.36719365	      0.59982068	    -13.21510916	      0.00000000	      0.00000000
    121.23555600	    -17.85657488	     -1.10895138	     -7.11139374	      0.00971157	      1.36921847	      0.24084061	     82.15071408	      2.69389512	      5.66454182	    109.24710448	      1.90672167	     17.71902425	      0.00000000	      0.00000000	     44.53401197	    -10.88852298	     -9.72225435	     35.10066373	      0.61262215	    -13.74525614	      0.00000000	      0.00000000
    121.24444400	    -17.76800359	     -1.03851069	     -7.19353371	      0.00911708	      1.36942684	      0.24074459	     82.65745682	      2.89808522	      5.76055737	    108.64174379	      1.89615613	     18.13420435	      0.00000000	      0.00000000	     44.36189251	    -10.91061970	     -9.58263274	     36.16603572	      0.63121640	    -14.05824412	      0.00000000	      0.00000000
    121.25333300	    -17.95228981	     -1.21249125	     -7.28706998	      0.00860070	      1.36934524	      0.24061470	     83.24282428	      3.17863388	      5.55995125	    107.78318032	      1.88117137	     18.83739666	      0.00000000	      0.00000000	     44.64022017	    -11.16733748	     -9.15070716	     37.60073479	      0.65625662	    -13.90720386	      0.00000000	      0.00000000
